<?xml version="1.0" encoding="utf-8"?>
<!-- Generator: Adobe Illustrator 28.3.0, SVG Export Plug-In . SVG Version: 6.00 Build 0)  -->
<svg version="1.1" xmlns="http://www.w3.org/2000/svg" xmlns:xlink="http://www.w3.org/1999/xlink" x="0px" y="0px"
	 viewBox="0 0 100 100" style="enable-background:new 0 0 100 100;" xml:space="preserve">
<style type="text/css">
	.st0{display:none;}
	.st1{display:inline;fill:#0A6B73;}
	.st2{display:inline;fill:#EC1C24;}
	.st3{display:inline;}
	.st4{fill:#1E4C59;}
	.st5{display:inline;fill:#30D4D1;}
	.st6{display:inline;fill:#1E4C59;}
	.st7{fill:#30D4D1;}
	.st8{fill:none;stroke:#1E4C59;stroke-width:3.45;stroke-miterlimit:10;}
</style>
<g id="Capa_1">
</g>
<g id="ICONOS_MENU_superior" class="st0">
	<g id="AVATAR">
		<path class="st1" d="M24.9,74.7c3.7-2.6,7.7-4.7,11.7-6.3c4.1-1.5,8.5-2.3,13.4-2.3s9.3,0.8,13.4,2.3c4.1,1.5,8,3.6,11.7,6.3
			c3-3,5.5-6.6,7.3-10.8s2.8-8.8,2.8-13.9c0-9.8-3.4-18.1-10.3-25c-6.9-6.9-15.2-10.3-25-10.3S31.9,18.2,25,25S14.7,40.2,14.7,50
			c0,5.1,0.9,9.7,2.8,13.9S21.9,71.7,24.9,74.7z M50,51.5c-3.5,0-6.5-1.2-8.9-3.6c-2.4-2.4-3.6-5.4-3.6-8.9c0-3.5,1.2-6.5,3.6-8.9
			c2.4-2.4,5.4-3.6,8.9-3.6c3.5,0,6.5,1.2,8.9,3.6c2.4,2.4,3.6,5.4,3.6,8.9s-1.2,6.5-3.6,8.9C56.5,50.3,53.5,51.5,50,51.5z M50,88.3
			c-5.4,0-10.4-1-15-3c-4.7-2-8.7-4.7-12.2-8.2c-3.5-3.5-6.2-7.5-8.2-12.2c-2-4.7-3-9.7-3-15s1-10.4,3-15s4.7-8.7,8.2-12.2
			s7.5-6.2,12.2-8.2s9.7-3,15-3s10.4,1,15,3s8.7,4.7,12.2,8.2s6.2,7.5,8.2,12.2c2,4.7,3,9.7,3,15s-1,10.4-3,15
			c-2,4.7-4.7,8.7-8.2,12.2c-3.5,3.5-7.5,6.2-12.2,8.2C60.4,87.3,55.4,88.3,50,88.3z M50,85.2c4.1,0,8.2-0.8,12.3-2.3
			s7.5-3.5,10.4-6.1c-2.9-2.4-6.2-4.2-10.1-5.6s-8.1-2.1-12.6-2.1s-8.8,0.7-12.7,2s-7.2,3.2-10,5.7c2.9,2.6,6.3,4.6,10.4,6.1
			S45.9,85.2,50,85.2z M50,48.5c2.6,0,4.9-0.9,6.7-2.8c1.8-1.8,2.8-4.1,2.8-6.7s-0.9-4.9-2.8-6.7c-1.8-1.8-4.1-2.8-6.7-2.8
			s-4.9,0.9-6.7,2.8c-1.8,1.8-2.8,4.1-2.8,6.7s0.9,4.9,2.8,6.7C45.1,47.5,47.4,48.5,50,48.5z"/>
	</g>
	<g id="NOTIFICACIONES_00000052067889214542189880000010060007447310712754_">
		<path class="st1" d="M22,77.4v-3h6.4V39.3c0-5.5,1.8-10.3,5.3-14.4s8-6.7,13.3-7.6v-2.1c0-1,0.4-1.9,1.1-2.6
			c0.7-0.7,1.6-1.1,2.6-1.1c1,0,1.9,0.4,2.6,1.1c0.7,0.7,1.1,1.6,1.1,2.6v2.1c5.3,0.9,9.8,3.5,13.3,7.6c3.5,4.1,5.3,8.9,5.3,14.4
			v35.1h6.4v3H22z M50.7,88.1c-1.8,0-3.3-0.6-4.5-1.9c-1.2-1.3-1.9-2.8-1.9-4.5h12.8c0,1.8-0.6,3.3-1.9,4.5
			C53.9,87.5,52.4,88.1,50.7,88.1z M31.4,74.4h38.5V39.3c0-5.3-1.9-9.9-5.6-13.6c-3.7-3.7-8.3-5.6-13.6-5.6S40.8,22,37,25.7
			s-5.6,8.3-5.6,13.6V74.4z"/>
		<circle class="st2" cx="76.4" cy="26.7" r="19.7"/>
	</g>
	<g id="NOTIFICACIONES_copia">
		<path class="st1" d="M22,77.4v-3h6.4V39.3c0-5.5,1.8-10.3,5.3-14.4s8-6.7,13.3-7.6v-2.1c0-1,0.4-1.9,1.1-2.6
			c0.7-0.7,1.6-1.1,2.6-1.1c1,0,1.9,0.4,2.6,1.1c0.7,0.7,1.1,1.6,1.1,2.6v2.1c5.3,0.9,9.8,3.5,13.3,7.6c3.5,4.1,5.3,8.9,5.3,14.4
			v35.1h6.4v3H22z M50.7,88.1c-1.8,0-3.3-0.6-4.5-1.9c-1.2-1.3-1.9-2.8-1.9-4.5h12.8c0,1.8-0.6,3.3-1.9,4.5
			C53.9,87.5,52.4,88.1,50.7,88.1z M31.4,74.4h38.5V39.3c0-5.3-1.9-9.9-5.6-13.6c-3.7-3.7-8.3-5.6-13.6-5.6S40.8,22,37,25.7
			s-5.6,8.3-5.6,13.6V74.4z"/>
	</g>
	<g id="HAMBURGUESA">
		<path class="st1" d="M7.8,75.8v-3.8h24v3.8H7.8z M7.8,51.9v-3.8h54.2v3.8H7.8z M7.8,28.1v-3.8h84.5v3.8H7.8z"/>
	</g>
</g>
<g id="ICONOS_MENU_INFERIOR_00000147201199370912135440000014228895191147869577_">
	<g id="HOME" class="st0">
		<g class="st3">
			<polygon class="st4" points="60.8,60.8 38.8,60.8 38.8,60.8 38.8,60.8 38.8,84.7 42.5,84.7 42.5,64.4 57.1,64.4 57.1,84.7 
				60.8,84.7 60.8,60.8 60.8,60.8 			"/>
			<polygon class="st4" points="49.5,15.7 12.1,38.9 12.1,84.7 16,84.7 16,40.5 49.5,19.7 83.1,40.5 83.1,84.7 87,84.7 87,38.9 			
				"/>
		</g>
	</g>
	<g id="SERVICIOS" class="st0">
		<polyline class="st5" points="16.6,97.7 32.4,91.3 28.7,82 69,78.1 96.9,58.6 90.8,52 70.9,59.3 64.1,53.5 30.4,55 7.5,65.7 		"/>
		<path class="st6" d="M7.5,32.3v-3c0-2.7,1.5-5,4.4-6.8s6.7-2.7,11.3-2.7c0.6,0,1.3,0,2.1,0.1c0.8,0.1,1.6,0.2,2.6,0.3
			c-0.6,1.2-1.1,2.3-1.3,3.6c-0.3,1.2-0.4,2.4-0.4,3.6v5H7.5z M30.4,40.8v-4.5c0-1.7,0.5-3.2,1.5-4.6c1-1.4,2.5-2.6,4.5-3.6
			s4.3-1.8,7-2.3s5.6-0.8,8.8-0.8c3.3,0,6.3,0.3,8.9,0.8s5,1.3,7,2.3s3.5,2.2,4.5,3.6c1,1.4,1.5,3,1.5,4.6v4.5H30.4z M78.6,32.4v-5
			c0-1.3-0.1-2.6-0.4-3.7c-0.3-1.2-0.7-2.3-1.2-3.4c1-0.2,1.9-0.3,2.6-0.3c0.7-0.1,1.4-0.1,2-0.1c4.6,0,8.3,0.9,11.2,2.7
			c2.9,1.8,4.4,4.1,4.4,6.8v3H78.6z M33.7,37.5h37.3v-1.3c0-2.4-1.7-4.3-5.1-5.8s-7.9-2.2-13.5-2.2s-10.1,0.7-13.5,2.2
			c-3.4,1.5-5.1,3.4-5.1,5.8V37.5z M23.1,15.5c-1.6,0-3-0.6-4.1-1.7c-1.1-1.1-1.7-2.5-1.7-4.1c0-1.6,0.6-2.9,1.7-4s2.5-1.7,4.1-1.7
			c1.6,0,2.9,0.6,4.1,1.7S29,8.1,29,9.7c0,1.5-0.6,2.9-1.7,4C26.2,14.9,24.8,15.5,23.1,15.5z M81.6,15.5c-1.6,0-2.9-0.6-4.1-1.7
			s-1.7-2.5-1.7-4c0-1.6,0.6-2.9,1.7-4.1S80.1,4,81.7,4c1.6,0,3,0.6,4.1,1.7c1.1,1.1,1.7,2.5,1.7,4c0,1.6-0.6,3-1.7,4.1
			C84.7,14.9,83.3,15.5,81.6,15.5z M52.3,21.5c-2.5,0-4.7-0.9-6.4-2.6s-2.7-3.9-2.7-6.4c0-2.6,0.9-4.7,2.6-6.5
			c1.8-1.7,3.9-2.6,6.4-2.6c2.6,0,4.7,0.9,6.5,2.6c1.7,1.7,2.6,3.9,2.6,6.4c0,2.5-0.9,4.7-2.6,6.4C57,20.6,54.9,21.5,52.3,21.5z
			 M52.4,18.2c1.6,0,3-0.6,4.1-1.7c1.1-1.2,1.7-2.5,1.7-4.1c0-1.6-0.6-3-1.7-4.1c-1.1-1.1-2.5-1.7-4.2-1.7c-1.6,0-2.9,0.6-4.1,1.7
			c-1.2,1.1-1.7,2.5-1.7,4.2c0,1.6,0.6,2.9,1.7,4.1S50.8,18.2,52.4,18.2z"/>
		<path class="st6" d="M28.7,82L69,78.1l24.4-19.9c-0.7-1.6-1.5-2.6-2.6-3c-1-0.3-2-0.3-3,0L66.3,64c-1.9,0.8-3.8,1.4-5.6,2
			c-1.8,0.5-3.7,0.9-5.7,1l-11.3,0.8l0-3.8l10.8-0.3c1.8,0,3.7-0.4,5.7-1.1c2-0.7,4.6-1.7,7.8-3c-0.7-1.6-1.4-2.8-2.4-3.5
			c-0.9-0.7-2-1-3.2-1l-30.6,1c-0.3,0-0.5,0-0.7,0.1c-0.2,0-0.4,0.1-0.7,0.2L20,60.6L28.7,82z M16.6,97.7L2.9,63.7L29,53.2
			c0.4-0.2,0.8-0.3,1.3-0.4c0.5-0.1,0.9-0.1,1.4-0.1l30.7-1.1c1.6,0,3.3,0.5,4.9,1.5c1.7,1,3,2.7,4,5.2L86.6,52c2.5-1,4.6-1,6.3,0.1
			c1.7,1.1,3.1,2.7,4,5l0.9,2.3L70.7,81.5l-40.6,4l2.4,5.8L16.6,97.7z M18.6,93.1l9.3-3.8L16.8,61.9l-9.3,3.8L18.6,93.1z"/>
		<g class="st3">
			<path class="st7" d="M33.7,37.5h37.3v-1.3c0-2.4-1.7-4.3-5.1-5.8s-7.9-2.2-13.5-2.2s-10.1,0.7-13.5,2.2c-3.4,1.5-5.1,3.4-5.1,5.8
				V37.5z"/>
			<path class="st7" d="M52.4,18.2c1.6,0,3-0.6,4.1-1.7c1.1-1.2,1.7-2.5,1.7-4.1c0-1.6-0.6-3-1.7-4.1c-1.1-1.1-2.5-1.7-4.2-1.7
				c-1.6,0-2.9,0.6-4.1,1.7c-1.2,1.1-1.7,2.5-1.7,4.2c0,1.6,0.6,2.9,1.7,4.1S50.8,18.2,52.4,18.2z"/>
		</g>
	</g>
	<g id="SOLICITUDES" class="st0">
		<g class="st3">
			<path class="st4" d="M6.7,84.3c-2.2,0-4-0.7-5.5-2.2s-2.2-3.3-2.2-5.4v-7.7h13.5V8.1l5.4,3.2l5.6-3.2l5.6,3.2l5.6-3.2l5.6,3.2
				l5.6-3.2l5.6,3.2l5.6-3.2l5.6,3.2l5.4-3.2v68.5c0,2.2-0.7,4-2.2,5.5c-1.5,1.5-3.3,2.2-5.5,2.2H6.7z M60.8,81.1
				c1.3,0,2.3-0.4,3.2-1.3c0.9-0.9,1.3-1.9,1.3-3.2V13.5H15.7v55.4h40.6v7.7c0,1.3,0.4,2.3,1.3,3.2C58.5,80.7,59.5,81.1,60.8,81.1z
				 M6.7,81.1h46.4v-9H2.2v4.5c0,1.3,0.4,2.3,1.3,3.2C4.4,80.7,5.4,81.1,6.7,81.1z M2.2,81.1v-9V81.1z"/>
			<path class="st4" d="M82.5,16.7l-5.6-3.2l-5.6,3.2l-4.5-2.5v4.8h18.1V82c0,1.3-0.4,2.3-1.3,3.2c-0.9,0.9-1.9,1.3-3.2,1.3
				c-1.3,0-2.3-0.4-3.2-1.3c-0.9-0.9-1.3-1.9-1.3-3.2v-7.7h-9.1v3.2h5.9v9H26.1c-1.3,0-2.3-0.4-3.2-1.3c-0.9-0.9-1.3-1.9-1.3-3.2V82
				h-3.2v0.1c0,2.1,0.7,3.9,2.2,5.4c1.5,1.5,3.3,2.2,5.5,2.2h54.1c2.2,0,4-0.7,5.5-2.2c1.5-1.5,2.2-3.3,2.2-5.5V13.5L82.5,16.7z"/>
			<g>
				<line class="st8" x1="24.4" y1="25.6" x2="56.8" y2="25.6"/>
				<line class="st8" x1="24.4" y1="38" x2="56.8" y2="38"/>
				<line class="st8" x1="24.4" y1="50.5" x2="56.8" y2="50.5"/>
			</g>
		</g>
	</g>
	<g id="MI_CUENTA">
		<g id="Capa_9" class="st0">
			<g id="Capa_8" class="st3">
				<path class="st7" d="M83.6,80.8H16.4v-3.4c0-1.3,0.4-2.5,1.3-3.7c0.9-1.2,2.1-2.2,3.7-3c4.5-2.1,9.1-3.8,13.9-5
					C40.2,64.6,45.1,64,50,64c4.9,0,9.8,0.6,14.6,1.7c4.8,1.2,9.5,2.8,13.9,5c1.6,0.8,2.8,1.8,3.7,3c0.9,1.2,1.3,2.4,1.3,3.7V80.8z"
					/>
			</g>
			<path class="st5" d="M42.1,22.5c2.2-2.2,4.8-3.3,7.9-3.3c3.1,0,5.7,1.1,7.9,3.3c2.2,2.2,3.3,4.8,3.3,7.9c0,3.1-1.1,5.7-3.3,7.9
				c-2.2,2.2-4.8,3.3-7.9,3.3c-3.1,0-5.7-1.1-7.9-3.3c-2.2-2.2-3.3-4.8-3.3-7.9C38.8,27.3,39.9,24.7,42.1,22.5z"/>
		</g>
		<g>
			<path class="st4" d="M50,45.5c4.2,0,7.7-1.5,10.7-4.4c3-3,4.4-6.5,4.4-10.7c0-4.2-1.5-7.7-4.4-10.7c-3-3-6.5-4.4-10.7-4.4
				c-4.2,0-7.7,1.5-10.7,4.4c-3,3-4.4,6.5-4.4,10.7c0,4.2,1.5,7.7,4.4,10.7C42.3,44,45.8,45.5,50,45.5z M42.1,22.5
				c2.2-2.2,4.8-3.3,7.9-3.3c3.1,0,5.7,1.1,7.9,3.3c2.2,2.2,3.3,4.8,3.3,7.9c0,3.1-1.1,5.7-3.3,7.9c-2.2,2.2-4.8,3.3-7.9,3.3
				c-3.1,0-5.7-1.1-7.9-3.3c-2.2-2.2-3.3-4.8-3.3-7.9C38.8,27.3,39.9,24.7,42.1,22.5z"/>
			<path class="st4" d="M85.6,71.6c-1.3-1.8-3-3.2-5.1-4.3c-5.1-2.4-10.2-4.2-15.3-5.5S55,60.1,50,60.1s-10.1,0.6-15.2,1.8
				c-5.1,1.2-10.2,3-15.3,5.5c-2.1,1-3.8,2.4-5.1,4.3c-1.3,1.8-1.9,3.8-1.9,5.8v7.3h75v-7.3C87.5,75.4,86.8,73.4,85.6,71.6z
				 M83.6,80.8H16.4v-3.4c0-1.3,0.4-2.5,1.3-3.7c0.9-1.2,2.1-2.2,3.7-3c4.5-2.1,9.1-3.8,13.9-5C40.2,64.6,45.1,64,50,64
				c4.9,0,9.8,0.6,14.6,1.7c4.8,1.2,9.5,2.8,13.9,5c1.6,0.8,2.8,1.8,3.7,3c0.9,1.2,1.3,2.4,1.3,3.7V80.8z"/>
		</g>
	</g>
</g>
</svg>
